<svg xmlns="http://www.w3.org/2000/svg" width="80" height="80" viewBox="0 0 80 80">
    <g fill="none" fill-rule="evenodd">
        <path fill="#09357A" d="M60.29 46.516c2.203 0 3.994-.72 3.994-4.562 0-3.267-1.791-4.354-3.993-4.354h-1.156v8.916h1.156zm1.166-11.508c3.99 0 6.687 2.49 6.687 6.946 0 5.602-3.705 7.258-7.589 7.258h-5.197c.018-.31 0-1.139 0-2.178v-9.849c0-1.037.018-1.7 0-2.177h6.1zM73.795 47.034c0 1.04.052 2.178.052 2.178H69.99s.026-1.138.026-2.178v-9.85c0-1.037-.026-2.175-.026-2.175h9.116v2.747s-2.037-.05-2.73-.05h-2.581v2.86l2.58.027c.485 0 2.149-.027 2.149-.027v2.617s-1.477-.04-2.148-.04l-2.581.015v3.876zM44.452 40.376c.057-.823.355-2.731 2.455-2.731 2.153 0 2.27 1.794 2.27 2.742v.191s-1.436.039-2.296.039c-.86 0-2.442-.039-2.442-.039l.013-.202zm3.21 5.965c-1.815 0-3.21-1.204-3.21-3.089v-.16s3.37-.082 4.511-.082c1.943 0 2.744-.017 4.275-.038V41.9c0-4.84-2.078-7.195-6.357-7.195-1.973 0-6.56.733-6.56 7.51 0 4.522 2.312 7.223 6.35 7.223 3.172 0 5.12-.798 6.53-1.816-.158-.235-1.34-2.332-1.494-2.56-.847.638-2.244 1.279-4.045 1.279z"/>
        <path fill="#FE5815" d="M14.953 45.705c-.27.284-1.01.39-1.218.713-.317.49-1.045 1.608-1.615 2.14-1.834 1.72-5.762 2.585-7.7.94-.126.01-.051.082.1.552.14.89.867 2.98.6 3.514.172.593.356.376.684.704.226.223.318.804.576.961.296-.018.59-.04.885-.06.053.162.11.324.162.491l1.137-.082c.213.048.858.377 1.046.428l1.263-.088c.963.254 1.804-.144 2.617-.686.453-.3.95-.253 1.353-.593.584-.494 1.378-1.461 1.75-2.129.912-1.638.603-5.56-.224-6.53-.323-.349-.706-.355-1.416-.275m7.631-1.075c-.683.517-.97.389-1.372 1.187-.04 0 .062.122.019.122.408.803 1.342 1.128 2.03 1.692.215.179.794 1.171 1.07 1.244.308.365.511 1.373.712 1.373.211.284-.017.952.189 1.21.015 1.196-.154 1.28-.365 1.51 0 .083.116.3.116.381.058.058.543.402.755.36.658.02 3.358 2.1 3.573 2.502 1.938.144 1.796-.44 3.133-1 .36-.154.648-.009.885-.253.248-.25.27-.744.507-1 .033-4.707-6.45-9.164-11.252-9.328m5.262-9.945c-2.401.357-3.87 1.114-4.775 1.734-.633.435-.819.728-.955.912-.136.184-.23.59-.161 1.018.07.425.244.878.618 1.13 2.948-.216 8.066-.4 9.063 2.047.053.34.13.545.137.627.976-.238.263-.154 1.7.07.33.05 1.141-.13 1.68-.26.244-.057.382-.277.382-.277s-.046-.232-.032-.36c0 0 .505.037.711-.119 1.363-.22.647-.852 1.29-1.565-.388-4.572-5.135-5.634-9.658-4.957M9.57 43.023c.528-.135 1.427-.205 1.898-.436.75-.372 3.331-2.153 2.51-3.604-.253-3.058-3.988-.474-5.578-1.546-1.608-.205-3.417-3.21-3.901-4.498-.189-.51-.11-.336-.37-.739.003-.041-.164.14-.162.097-.471.542-.39 1.015-.463 2.334-.21-.012-.42-.026-.632-.04-.041.479-.09.74-.316.985-.046.082-.094.16-.14.24-.4-.131-.2.057-.364-.273-1.48.073-1.37 1.543-2.052 2.38.03 2.746 5.532 6.133 9.57 5.1m11.518-18.198c.241-1.108 2.005-.848 1.73-1.553-.17-.441-.998-.232-1.335-.15-.253.059-2.672.815-3.603.918l-1.18-.326c-1.517.202-2.393 1.395-3.238 2.343-.708.795-1.666 2.74-.904 3.905l-.128.763 1.726 2.49c.594.421.673.735 1.314 1.15l.395.588c.525.34 2.07.345 2.33.123 2.485.23 2.215-4.744 3.005-5.787-.1-.47-.518-.957-.912-1.197.126-1.038-.03-2.553.8-3.267z"/>
    </g>
</svg>
